<svg width="500" height="100" viewBox="0 0 500 100" fill="none" xmlns="http://www.w3.org/2000/svg">
  <path d="M52.5 12.5C52.5 7.5 56.5 3.5 61.5 3.5H88.5C93.5 3.5 97.5 7.5 97.5 12.5V87.5C97.5 92.5 93.5 96.5 88.5 96.5H61.5C56.5 96.5 52.5 92.5 52.5 87.5V12.5Z" fill="#F44250"/>
  <path d="M2.5 12.5C2.5 7.5 6.5 3.5 11.5 3.5H38.5C43.5 3.5 47.5 7.5 47.5 12.5V87.5C47.5 92.5 43.5 96.5 38.5 96.5H11.5C6.5 96.5 2.5 92.5 2.5 87.5V12.5Z" fill="#FFFFFF"/>
  <path d="M102.5 12.5C102.5 7.5 106.5 3.5 111.5 3.5H138.5C143.5 3.5 147.5 7.5 147.5 12.5V87.5C147.5 92.5 143.5 96.5 138.5 96.5H111.5C106.5 96.5 102.5 92.5 102.5 87.5V12.5Z" fill="#FFFFFF"/>
  <path d="M152.5 12.5C152.5 7.5 156.5 3.5 161.5 3.5H188.5C193.5 3.5 197.5 7.5 197.5 12.5V87.5C197.5 92.5 193.5 96.5 188.5 96.5H161.5C156.5 96.5 152.5 92.5 152.5 87.5V12.5Z" fill="#FFFFFF"/>
  <path d="M202.5 12.5C202.5 7.5 206.5 3.5 211.5 3.5H238.5C243.5 3.5 247.5 7.5 247.5 12.5V87.5C247.5 92.5 243.5 96.5 238.5 96.5H211.5C206.5 96.5 202.5 92.5 202.5 87.5V12.5Z" fill="#FFFFFF"/>
  <path d="M252.5 12.5C252.5 7.5 256.5 3.5 261.5 3.5H288.5C293.5 3.5 297.5 7.5 297.5 12.5V87.5C297.5 92.5 293.5 96.5 288.5 96.5H261.5C256.5 96.5 252.5 92.5 252.5 87.5V12.5Z" fill="#FFFFFF"/>
  <path d="M302.5 12.5C302.5 7.5 306.5 3.5 311.5 3.5H338.5C343.5 3.5 347.5 7.5 347.5 12.5V87.5C347.5 92.5 343.5 96.5 338.5 96.5H311.5C306.5 96.5 302.5 92.5 302.5 87.5V12.5Z" fill="#FFFFFF"/>
  <path d="M352.5 12.5C352.5 7.5 356.5 3.5 361.5 3.5H388.5C393.5 3.5 397.5 7.5 397.5 12.5V87.5C397.5 92.5 393.5 96.5 388.5 96.5H361.5C356.5 96.5 352.5 92.5 352.5 87.5V12.5Z" fill="#FFFFFF"/>
  <path d="M402.5 12.5C402.5 7.5 406.5 3.5 411.5 3.5H438.5C443.5 3.5 447.5 7.5 447.5 12.5V87.5C447.5 92.5 443.5 96.5 438.5 96.5H411.5C406.5 96.5 402.5 92.5 402.5 87.5V12.5Z" fill="#FFFFFF"/>
  <path d="M452.5 12.5C452.5 7.5 456.5 3.5 461.5 3.5H488.5C493.5 3.5 497.5 7.5 497.5 12.5V87.5C497.5 92.5 493.5 96.5 488.5 96.5H461.5C456.5 96.5 452.5 92.5 452.5 87.5V12.5Z" fill="#FFFFFF"/>
</svg> 